<svg xmlns="http://www.w3.org/2000/svg" fill="none" viewBox="0 0 64 64">
  <g id="Frame 73">
    <rect fill="#9961F7" height="64" width="64" />
    <path d="M34 8C39.6178 8 42.4265 8.00039 44.4443 9.34863C45.3178 9.93229 46.0677 10.6822 46.6514 11.5557C47.9996 13.5735 48 16.3822 48 22C48 27.6178 47.9996 30.4265 46.6514 32.4443C46.0677 33.3178 45.3178 34.0677 44.4443 34.6514C42.4265 35.9996 39.6178 36 34 36H48C50.2091 36 52 37.7909 52 40C52 42.2091 50.2091 44 48 44H44V52C44 54.2091 42.2091 56 40 56C37.7909 56 36 54.2091 36 52V44H28V52C28 54.2091 26.2091 56 24 56C21.7909 56 20 54.2091 20 52V44H16C13.7909 44 12 42.2091 12 40C12 37.7909 13.7909 36 16 36H30C24.3822 36 21.5735 35.9996 19.5557 34.6514C18.6822 34.0677 17.9323 33.3178 17.3486 32.4443C16.0004 30.4265 16 27.6178 16 22C16 16.3822 16.0004 13.5735 17.3486 11.5557C17.9323 10.6822 18.6822 9.93229 19.5557 9.34863C21.5735 8.00039 24.3822 8 30 8H34Z" fill="#D9D9D9" id="Union" />
  </g>
</svg>